<svg width="500" height="506" viewBox="0 0 500 506" fill="none" xmlns="http://www.w3.org/2000/svg">
<g id="elif 1">
<g id="Group">
<g id="f-elif">
<path id="Vector" d="M424.3 172.5C409.7 176.5 394.2 188 384.9 201.4C383 204.2 380.8 207.1 379.9 208C376.6 211.4 366.3 229.1 358 245.5C345.3 270.6 337.4 296.4 336.3 316.2C335.2 336.8 340 348.8 350.3 351.4C352.5 351.9 353.6 351.5 355.6 349.5C358.5 346.6 358.5 345.7 356 330.7C355 324.6 355 321 355.9 313.7C357.8 299.1 365.5 274.5 369.8 269.7C371 268.3 373.1 268 381.5 268C392.9 268 410.5 266.4 416.3 264.9C418.3 264.4 420.7 262.8 421.6 261.5C423 259.4 423 258.9 421.6 256.2C420.8 254.6 418.4 252.5 416.4 251.5C412.6 249.7 412.7 249.7 386.8 251.6C379.9 252.1 378 252 378 251C378 249.2 388.1 230.2 393.4 222.1C397.8 215.2 417.4 195 419.6 195C420.3 195 421.1 194.1 421.5 193.1C422.1 191 431.2 186.7 433.8 187.2C434.8 187.4 435.6 188.7 435.8 190.2C436.2 193.2 433.4 203.5 430.2 211.6C427.9 217.3 428.1 218 431.9 218C437.1 218 439.1 216.6 444.4 209.6C454.9 195.7 456.9 186.4 450.8 179.4C444.8 172.6 434 169.8 424.3 172.5Z" fill="black"/>
</g>
<g id="e-elif">
<path id="Vector_2" d="M185.8 175.5C181.6 176.2 177.7 177.1 177.1 177.4C176.6 177.7 171.8 178.7 166.5 179.5C157.8 180.8 156.6 180.8 154.4 179.3C149.7 176.3 142 178 127.4 185.3C111.3 193.4 107.7 196.2 108.5 200C109 202.2 108.3 203.7 104.8 207.8C102.4 210.6 98.9 215.4 97 218.6C95.1 221.8 88.8 230.3 83.1 237.4C64.4 260.7 56.8 274.3 53.2 290.7C51.9 296.9 51.8 299.1 52.8 303.7C55.5 316.7 62 323.9 78.4 332.4C89.8 338.3 89.8 338.3 100.2 338.8C125.7 339.9 162.7 332.1 180.8 321.8C189.2 316.9 199 307.3 199 303.8C199 299.7 197.6 298.7 193.4 299.4C187.8 300.5 177.1 304.9 172.3 308.2C170 309.7 167.5 311 166.8 311C166.1 311 162.1 312.1 157.9 313.5C153.7 314.8 145.2 316.8 138.9 317.9C132.6 319.1 123.3 320.7 118.2 321.7C110.4 323.1 107.5 323.2 99.4 322.2C87.7 320.9 81.8 318.2 77.3 312.2C74.5 308.6 74 307 74 302.6C74 292.9 79.6 276.2 85.3 268.5C86.8 266.6 86.9 266.6 88.8 268.3C91.7 270.9 97 271.4 108 270.1C119.7 268.7 175.2 256.8 183.8 253.9C192.7 250.9 193.8 247.9 187.8 242.3C183.9 238.6 180.9 238 174.4 239.6C162.9 242.3 111.3 251.9 105 252.5C101.2 252.8 97.9 252.7 97 252.1C95.4 251 95.4 251 109.1 236.5C112.7 232.6 117.9 226.3 120.5 222.5C127.4 212.6 135.7 204.3 141.5 201.5C148 198.3 164 195.6 193.1 192.5C218.5 189.8 222.8 189 225.5 186C227 184.3 227.1 183.6 226 181C223.4 174.8 221.2 174 206.6 174.1C199.4 174.2 190 174.8 185.8 175.5Z" fill="black"/>
</g>
<g id="l-elif">
<path id="Vector_3" d="M282.1 175.4C279.1 176.5 278.4 177.4 275.7 185C274 189.7 266.7 205.4 259.4 220C243.7 251.3 241 257.2 241 259.2C241 260 240.1 261.9 239 263.3C235.4 267.9 228.3 284 223.5 298.5C219.4 310.8 218.9 313.3 219.2 319.2C219.6 327.4 221.8 330.9 227.9 333C231.6 334.3 232.4 334.3 234.8 332.9C237.3 331.5 237.5 330.8 238.2 322.9C238.7 315.6 239.9 311.6 246 295.4C256.9 266.7 257.3 265.6 258.7 264.2C259.4 263.5 260 262.1 260 261.2C260 260.3 263.2 253.9 267.1 247C271.1 240.1 275 232.7 276 230.5C276.9 228.3 281.5 220.2 286.2 212.5C297.6 193.7 298 192.9 298 186.9C298 182.1 297.7 181.4 293.8 177.8C289.4 173.8 287.6 173.4 282.1 175.4Z" fill="black"/>
</g>
<g id="punto-elif">
<path id="Vector_4" d="M319 202.8C316.8 203.9 315.3 205.4 315 207C314.3 210.3 312.2 213.2 308.8 215.4C302 219.8 309.3 230 319.1 230C324.7 230 336.3 218.5 336.3 213C336.3 209.7 332.4 204.8 327.8 202.4C324.3 200.6 323.2 200.6 319 202.8Z" fill="black"/>
</g>
<g id="i-elif">
<path id="Vector_5" d="M299.5 259.1C296.9 259.8 296.1 261 293.1 268.7C291.2 273.5 287.3 282.6 284.4 288.8C275.9 306.9 273.8 317 277.3 322.4C279.6 325.8 284.9 329.1 287.5 328.8C289.9 328.4 293.6 321.3 299.4 305.6C300.8 301.9 302.8 297.2 303.9 295.1C311.3 280.8 315.4 271.1 315.4 268.1C315.4 265.5 314.6 264 311.7 261.4C307.9 257.9 305.3 257.4 299.5 259.1Z" fill="black"/>
</g>
</g>
</g>
</svg>
