<?xml version="1.0" encoding="utf-8"?>
<!-- Generator: Adobe Illustrator 19.2.1, SVG Export Plug-In . SVG Version: 6.00 Build 0)  -->
<svg version="1.1" id="Layer_1" xmlns="http://www.w3.org/2000/svg" xmlns:xlink="http://www.w3.org/1999/xlink" x="0px" y="0px"
	 viewBox="0 0 120.007 150.002" style="enable-background:new 0 0 120.007 150.002;" xml:space="preserve">
<style type="text/css">
	.st0{display:none;fill:none;stroke:#FFFFFF;stroke-width:2;stroke-linecap:round;stroke-miterlimit:10;}
	.st1{fill:#D5D2E4;}
	.st2{fill:#43324E;}
	.st3{fill:#FFFFFF;}
	.st4{fill:#ECEDED;}
	.st5{fill:#E1E2E3;}
	.st6{fill:url(#SVGID_1_);}
	.st7{fill:url(#SVGID_2_);}
	.st8{fill:#414042;}
	.st9{fill:#96806A;}
	.st10{fill:#EDDFC7;}
	.st11{fill:#594A42;}
	.st12{fill:#E81C24;}
	.st13{fill:#00ADFF;}
	.st14{fill:#FFDFD7;}
	.st15{fill:#A63E45;}
	.st16{fill:#328BE7;}
	.st17{fill:#49CA8F;}
	.st18{fill:#58595B;}
	.st19{fill:#FF8BA5;}
	.st20{fill:#EFF0F0;}
	.st21{fill:#978278;}
	.st22{fill:#CED0D1;}
	.st23{fill:#FFC877;}
	.st24{fill:#6866A4;}
	.st25{fill:#A0DEFF;}
	.st26{fill:#FF4E00;}
	.st27{fill:#0068A8;}
	.st28{fill:#21405D;}
	.st29{fill:#991F63;}
	.st30{fill:#881F63;}
	.st31{fill:#BF956C;}
	.st32{fill:#AE865F;}
	.st33{fill:#E0312B;}
	.st34{fill:#E6E6E6;}
	.st35{fill:#B4B6B7;}
	.st36{fill:#BD2C25;}
	.st37{fill:#2F2E30;}
	.st38{fill:#231F20;}
	.st39{fill:#FFCDED;}
	.st40{fill:#FFBBED;}
	.st41{fill:#FFE98C;}
	.st42{fill:#695E98;}
	.st43{fill:#CCCECF;}
	.st44{fill:#C5625D;}
	.st45{fill:#FFACAE;}
	.st46{fill:#414141;}
	.st47{fill:#006ED9;}
	.st48{fill:#38A1F2;}
	.st49{fill:#47A9F3;}
	.st50{fill:#80BFCF;}
	.st51{fill:#8DCDDC;}
	.st52{fill:#2498F0;}
	.st53{fill:#2B398B;}
	.st54{fill:#BDB096;}
	.st55{fill:#A39983;}
	.st56{fill:#FF868A;}
	.st57{fill:#E97279;}
	.st58{fill:#E75C54;}
	.st59{fill:#726658;}
	.st60{fill:#D2DCD8;}
	.st61{fill:#FFC36B;}
	.st62{fill:#E1F3F4;}
	.st63{fill:#FFA54C;}
	.st64{fill:#ED7F3A;}
	.st65{fill:#E79FA3;}
	.st66{fill:#E5E6E7;}
	.st67{fill:#B5DCE9;}
	.st68{fill:#95D3EF;}
	.st69{fill:#808080;}
	.st70{fill:#FFB5B2;}
	.st71{fill:#B91E2D;}
	.st72{fill:#A2D34F;}
	.st73{fill:#79A630;}
	.st74{fill:#37783C;}
	.st75{fill:#349DFF;}
	.st76{fill:#228FFF;}
	.st77{fill:#56D481;}
	.st78{fill:#005BEE;}
	.st79{fill:#FFE859;}
	.st80{fill:#FC4054;}
	.st81{fill:#FFFA7A;}
	.st82{fill:#A47C50;}
	.st83{fill:#E7D0C7;}
	.st84{fill:#E43442;}
	.st85{fill:#E7CC5F;}
	.st86{fill:#94653E;}
	.st87{fill:#CE2A34;}
	.st88{fill:#D1A64A;}
	.st89{fill:#7B4F3A;}
	.st90{fill:#FFDF36;}
	.st91{fill:#FFD319;}
	.st92{fill:#AC322F;}
	.st93{fill:#C1E4D6;}
	.st94{fill:#F6E6C4;}
	.st95{fill:#6B503F;}
	.st96{fill:#5A362A;}
	.st97{fill:#75483B;}
	.st98{fill:#82614D;}
	.st99{fill:#FFF1E0;}
	.st100{fill:#4F2F23;}
	.st101{fill:#5C4536;}
	.st102{fill:#CEC3A8;}
	.st103{fill:#719687;}
	.st104{fill:#463022;}
</style>
<g>
	<path class="st3" d="M104.354,97.225l9.65-53.224H87.284l0,0.003H69.282c1.699-10.615,3.455-20.148,5.866-27.439
		c3.408-10.295,8.76-15.452,16.854-15.964V0.581c-2.251-0.389-4.554-0.583-6.918-0.583c-16.547,0-32.082,8.995-37.802,28.551
		c-1.407,4.801-2.657,10.002-3.833,15.456h-18.68v2h18.25c-8.463,40.221-13.298,93.072-43.015,102.612c0,0,13.17,3.592,23.967-0.798
		c33.04-13.462,38.989-63.962,44.992-101.814h17.991l-8.336,49.808c-1.709,10.54,6.365,19.372,17.11,20.149
		c13.969,1.003,24.284-5.25,24.284-5.25C101.621,112.012,104.354,97.225,104.354,97.225z"/>
	<path class="st3" d="M86.005,20.004c0,8.279,6.713,14.992,15.002,14.992c8.289,0,15.002-6.713,15.002-14.992
		c0-6.519-4.145-12.055-9.947-14.122c-0.01-0.01-0.021-0.02-0.041-0.02c-1.566-0.553-3.254-0.86-5.014-0.86
		C92.719,5.002,86.005,11.715,86.005,20.004z"/>
</g>
</svg>
