<?xml version="1.0" encoding="utf-8"?>
<!-- Generator: Adobe Illustrator 19.2.1, SVG Export Plug-In . SVG Version: 6.00 Build 0)  -->
<svg version="1.1" id="Layer_1" xmlns="http://www.w3.org/2000/svg" xmlns:xlink="http://www.w3.org/1999/xlink" x="0px" y="0px"
	 viewBox="0 0 78.004 150" style="enable-background:new 0 0 78.004 150;" xml:space="preserve">
<style type="text/css">
	.st0{display:none;fill:none;stroke:#FFFFFF;stroke-width:2;stroke-linecap:round;stroke-miterlimit:10;}
	.st1{fill:#A2F1FF;}
	.st2{fill:#FF868A;}
	.st3{fill:#FFFFFF;}
	.st4{fill:#58595B;}
	.st5{fill:#E5E6E7;}
	.st6{fill:#A3D3E3;}
	.st7{fill:#DD797F;}
	.st8{fill:#6D6E71;}
	.st9{fill:#4A4A4B;}
	.st10{fill:#414042;}
	.st11{fill:#E75C54;}
	.st12{fill:#FFE336;}
	.st13{fill:#56C681;}
	.st14{fill:#F37970;}
	.st15{fill:#FFEE85;}
	.st16{fill:#79D29B;}
	.st17{fill:#C44242;}
	.st18{fill:#FFBC13;}
	.st19{fill:#3AAB64;}
	.st20{fill:#4E4D4F;}
	.st21{fill:#63CF83;}
	.st22{fill:#FFE77A;}
	.st23{fill:#4FC37B;}
	.st24{fill:#FCDA71;}
	.st25{fill:#F0F1F1;}
	.st26{fill:#E38026;}
	.st27{fill:#BBBDBF;}
	.st28{fill:#7CC9B4;}
	.st29{fill:#8BDBC7;}
	.st30{fill:#3EBDA4;}
	.st31{fill:#4E706E;}
	.st32{fill:#3EAD95;}
	.st33{fill:#BA9C44;}
	.st34{fill:#B0933E;}
	.st35{fill:#F2C84C;}
	.st36{fill:#3A3A3B;}
	.st37{fill:#EF5E90;}
	.st38{fill:#363637;}
	.st39{fill:#A87C50;}
	.st40{fill:#594A42;}
	.st41{fill:#FFFDE7;}
	.st42{fill:#CAA94C;}
	.st43{fill:#D0D2D3;}
	.st44{fill:#8F6A44;}
	.st45{fill:#483B34;}
	.st46{fill:#AE923D;}
	.st47{fill:#D9D9CA;}
	.st48{fill:#BB3D45;}
	.st49{fill:#42362F;}
	.st50{fill:#10CD88;}
	.st51{fill:#166BFF;}
	.st52{fill:#FDEA41;}
	.st53{fill:#FDE140;}
	.st54{fill:#FDCF3E;}
	.st55{fill:#FFB13F;}
	.st56{fill:#FFE65D;}
	.st57{fill:#FF8432;}
	.st58{fill:#3B4B92;}
	.st59{fill:#69CA6D;}
	.st60{fill:#54C16D;}
	.st61{fill:#32A373;}
	.st62{fill:#00D869;}
	.st63{fill:#00AB65;}
	.st64{fill:#00912A;}
	.st65{fill:#D6AF67;}
	.st66{fill:#8F8056;}
	.st67{fill:#4C4D4F;}
	.st68{fill:#B19254;}
	.st69{fill:#56585A;}
	.st70{fill:#7E724C;}
	.st71{fill:#1A8200;}
	.st72{fill:#2F6000;}
	.st73{fill:#053100;}
	.st74{fill:#092400;}
	.st75{fill:#011200;}
	.st76{fill:#788BD0;}
	.st77{fill:#2E2A2B;}
	.st78{fill:#393435;}
	.st79{fill:#231F20;}
	.st80{fill:#FFA323;}
	.st81{fill:#FFB124;}
	.st82{fill:#FF8F19;}
	.st83{fill:#76B620;}
	.st84{fill:#9CBE47;}
	.st85{fill:#F9DF37;}
	.st86{fill:#F9CC37;}
	.st87{fill:#7C9C47;}
	.st88{fill:#807947;}
	.st89{fill:#C6A66C;}
	.st90{fill:#B89B65;}
	.st91{fill:#493C35;}
	.st92{fill:#FFFFE8;}
	.st93{fill:#FFF8D6;}
	.st94{fill:#603913;}
	.st95{fill:#4C4B4D;}
	.st96{fill:#E4E5E6;}
	.st97{fill:#6C6D6F;}
	.st98{fill:#93DBAE;}
	.st99{fill:#EFF0F0;}
	.st100{fill:#CFD1D2;}
	.st101{fill:#FFE98C;}
	.st102{fill:#FFD76C;}
	.st103{fill:#8C97D8;}
	.st104{fill:#1CC7C7;}
	.st105{fill:#CC66B6;}
	.st106{fill:#CD7EC5;}
	.st107{fill:#E598D9;}
	.st108{fill:#A5A7AA;}
	.st109{fill:#D281C2;}
	.st110{fill:#B859A0;}
	.st111{fill:#BD73BB;}
	.st112{fill:#BABCBE;}
	.st113{fill:#646467;}
	.st114{fill:#7385C6;}
	.st115{fill:#919396;}
	.st116{fill:#F0EFDE;}
	.st117{fill:#C1D4D9;}
	.st118{fill:#A2BEC7;}
	.st119{fill:#D8C7A9;}
	.st120{fill:#C8B89D;}
	.st121{fill:#DFDCC3;}
	.st122{fill:#856F6F;}
	.st123{fill:#808083;}
	.st124{fill:#FFCF75;}
	.st125{fill:#FFBE4B;}
	.st126{fill:#6C6D70;}
	.st127{fill:#FF956B;}
	.st128{fill:#FF795F;}
	.st129{fill:#82CD75;}
	.st130{fill:#55C05B;}
	.st131{fill:#5784D5;}
	.st132{fill:#3E73D5;}
	.st133{fill:#EF83A3;}
	.st134{fill:#EB6495;}
	.st135{fill:#B193CC;}
	.st136{fill:#9C80CC;}
	.st137{fill:#59595B;}
	.st138{fill:#6D574E;}
	.st139{fill:#634E45;}
	.st140{fill:#59453E;}
	.st141{fill:#4C3D36;}
	.st142{fill:#FFA88E;}
	.st143{fill:#CCA080;}
	.st144{fill:#A28F86;}
	.st145{fill:#AFC083;}
	.st146{fill:#B79073;}
	.st147{fill:#9DAC77;}
	.st148{fill:#8F7F77;}
	.st149{fill:#D99480;}
	.st150{fill:#EAD682;}
	.st151{fill:#7C6F72;}
	.st152{fill:#69F298;}
	.st153{fill:#3AD076;}
	.st154{fill:#2A885A;}
	.st155{fill:#BC2A1B;}
</style>
<g>
	<g>
		<path class="st3" d="M55.959,63c1.657,0,3-1.343,3-3s-1.343-3-3-3H21c-1.657,0-3,1.343-3,3v52c0,1.657,1.343,3,3,3h34.959
			c1.657,0,3-1.343,3-3s-1.343-3-3-3H24V89h23.07c1.657,0,3-1.343,3-3s-1.343-3-3-3H24V63H55.959z"/>
		<path class="st3" d="M21,42h34.959c1.657,0,3-1.343,3-3s-1.343-3-3-3H21c-1.657,0-3,1.343-3,3S19.343,42,21,42z"/>
	</g>
	<path class="st155" d="M12,6c-1.654,0-3-1.346-3-3s1.346-3,3-3s3,1.346,3,3S13.654,6,12,6z M12,2c-0.552,0-1,0.449-1,1s0.448,1,1,1
		s1-0.449,1-1S12.552,2,12,2z"/>
	<path class="st155" d="M37,150c-1.654,0-3-1.346-3-3s1.346-3,3-3s3,1.346,3,3S38.654,150,37,150z M37,146c-0.552,0-1,0.448-1,1
		s0.448,1,1,1s1-0.448,1-1S37.552,146,37,146z"/>
	<path class="st155" d="M3,69c-1.654,0-3-1.346-3-3s1.346-3,3-3s3,1.346,3,3S4.654,69,3,69z M3,65c-0.552,0-1,0.449-1,1s0.448,1,1,1
		s1-0.449,1-1S3.552,65,3,65z"/>
	<path class="st155" d="M75,96c-1.654,0-3-1.346-3-3s1.346-3,3-3s3,1.346,3,3S76.654,96,75,96z M75,92c-0.552,0-1,0.448-1,1
		s0.448,1,1,1s1-0.448,1-1S75.552,92,75,92z"/>
	<path class="st155" d="M68,21c-1.654,0-3-1.346-3-3s1.346-3,3-3s3,1.346,3,3S69.654,21,68,21z M68,17c-0.552,0-1,0.449-1,1
		s0.448,1,1,1s1-0.449,1-1S68.552,17,68,17z"/>
</g>
</svg>
